# xmcd
#
# Track frame offsets: 
#        150
#        11357
#        22720
#        31349
#        41489
#        54552
#        68316
#        80450
#        94247
#        106302
#        119585
#        131803
#
# Disc length: 1936 seconds
#
# Revision: 0
# Processed by: cddbd v1.5.2PL0 Copyright (c) Steve Scherf et al.
# Submitted via: ExactAudioCopy v0.99pb5
#
DISCID=8d078e0c
DTITLE=Various Artist - Sounds Ever Green - Compilation Blues 2 
DYEAR=2007
DGENRE=Blues
TTITLE0=John Lee Hooker - Boom Boom
TTITLE1=Sonny Boy Williams - Worried About Me
TTITLE2=John Lee Hooker - Check Up On My Baby Blues
TTITLE3=Bill Bill Broonzy - 16 Tones
TTITLE4=Big Joe Turner - Nobody In My Mind
TTITLE5=Mississipi John Hurt - Avalon Blues
TTITLE6=B.B King - Miss Martha King
TTITLE7=Blind Boy Fuller And Sonny Terry - New Love Blues
TTITLE8=Charlie Patton - Revenue Man Blues
TTITLE9=Tampa Red - You Cant Get That Stuff No More
TTITLE10=Big Joe Turner - Miss Brown Blues
TTITLE11=B.B King - Three O'Clock Blues
EXTD=
EXTT0=
EXTT1=
EXTT2=
EXTT3=
EXTT4=
EXTT5=
EXTT6=
EXTT7=
EXTT8=
EXTT9=
EXTT10=
EXTT11=
PLAYORDER=
